{
  "asset": {
    "version": "2.0",
    "generator": "generate_mario_gltf.py"
  },
  "scene": 0,
  "scenes": [
    {
      "name": "Scene",
      "nodes": [
        0,
        1
      ]
    }
  ],
  "nodes": [
    {
      "name": "Mario_Mesh",
      "mesh": 0
    },
    {
      "name": "Armature",
      "children": [
        2,
        3,
        4,
        5,
        6,
        7,
        8,
        9,
        10,
        11,
        12,
        13,
        14,
        15,
        16,
        17,
        18,
        19,
        20,
        21
      ]
    },
    {
      "name": "bone_0",
      "matrix": [
        0.001533999729128653,
        0.0,
        -0.9999988234217234,
        0.0,
        0.0,
        1.0,
        0.0,
        0.0,
        0.9999988234217234,
        -0.0,
        0.001533999729128653,
        0.0,
        0.0,
        42.5,
        0.0,
        1.0
      ]
    },
    {
      "name": "bone_1",
      "matrix": [
        -2.4000008406952418e-05,
        0.9998823502483499,
        0.015339005373093463,
        0.0,
        -0.0015340002667335235,
        -0.015339002667161355,
        0.9998811738603536,
        0.0,
        0.9999988231328989,
        4.6711824484961544e-07,
        0.0015341879281760775,
        0.0,
        0.0,
        42.5,
        0.0,
        1.0
      ]
    },
    {
      "name": "bone_2",
      "matrix": [
        -0.016885003813833125,
        0.9998282258322266,
        0.007643001726332637,
        0.0,
        0.23400810080509535,
        -0.003480001499101449,
        0.9722284188127596,
        0.0,
        0.9720880127427037,
        0.018204604877999672,
        -0.23390914441974434,
        0.0,
        0.0,
        59.497986,
        0.260742,
        1.0
      ]
    },
    {
      "name": "bone_3",
      "matrix": [
        0.03114500936384191,
        0.7820872351369088,
        0.6223901871235051,
        0.0,
        -0.011988002855434728,
        -0.6223551482394127,
        0.7826431864185853,
        0.0,
        0.9994429829348582,
        -0.031836644709985096,
        -0.010007592911531431,
        0.0,
        -0.367188,
        81.244263,
        0.426758,
        1.0
      ]
    },
    {
      "name": "bone_4",
      "matrix": [
        -0.23594895727424867,
        0.03871799298892711,
        -0.9709938241719687,
        0.0,
        -0.010110000558820186,
        0.9990540552217154,
        0.04229400233775875,
        0.0,
        0.9717128565203126,
        0.019795973855539974,
        -0.23533432365943807,
        0.0,
        18.330078,
        76.613342,
        -6.661133,
        1.0
      ]
    },
    {
      "name": "bone_5",
      "matrix": [
        0.9993175142833391,
        -0.02514698777734728,
        0.027057986848509272,
        0.0,
        0.018740008865375572,
        -0.28610013534599527,
        -0.9580164532108668,
        0.0,
        0.0318325217389407,
        0.957869687578668,
        -0.2854336213162089,
        0.0,
        18.330078,
        76.613342,
        -6.661133,
        1.0
      ]
    },
    {
      "name": "bone_6",
      "matrix": [
        0.6073689334682033,
        0.20826397718655693,
        0.7666349160220491,
        0.0,
        0.7937817149732788,
        -0.19776792898659254,
        -0.5751507934780534,
        0.0,
        0.03183260789874863,
        0.9578695024165669,
        -0.2854342330811129,
        0.0,
        34.568359,
        76.204712,
        -6.22168,
        1.0
      ]
    },
    {
      "name": "bone_7",
      "matrix": [
        0.20020805154066648,
        0.4239761091465157,
        0.8832672273843696,
        0.0,
        0.9797532956920386,
        -0.08638102607001355,
        -0.1806150545100832,
        0.0,
        -0.00027893866899310674,
        0.9015445651490361,
        -0.4326861671505739,
        0.0,
        43.679688,
        79.328674,
        5.27832,
        1.0
      ]
    },
    {
      "name": "bone_8",
      "matrix": [
        -0.23594895727424867,
        0.03871799298892711,
        -0.9709938241719687,
        0.0,
        -0.010110000558820186,
        0.9990540552217154,
        0.04229400233775875,
        0.0,
        0.9717128565203126,
        0.019795973855539974,
        -0.23533432365943807,
        0.0,
        -20.070312,
        76.144226,
        2.580078,
        1.0
      ]
    },
    {
      "name": "bone_9",
      "matrix": [
        -0.898145929967523,
        0.2994879766475757,
        0.3219329748974383,
        0.0,
        -0.3986208332750776,
        -0.863597638796477,
        -0.3087078708815708,
        0.0,
        0.1855662613466926,
        -0.4055939084936559,
        0.8950188512219455,
        0.0,
        -20.070312,
        76.144226,
        2.580078,
        1.0
      ]
    },
    {
      "name": "bone_10",
      "matrix": [
        -0.7008707840834717,
        0.5837758201567945,
        0.4098608737345899,
        0.0,
        -0.6887276703113085,
        -0.7033486633123505,
        -0.17593991577890203,
        0.0,
        0.18556562905311685,
        -0.40559367144253566,
        0.8950190897404846,
        0.0,
        -34.666016,
        81.010925,
        7.811523,
        1.0
      ]
    },
    {
      "name": "bone_11",
      "matrix": [
        -0.49700088175008533,
        0.7470028222678806,
        0.44156189494051556,
        0.0,
        -0.8476766518300258,
        -0.5267637836399852,
        -0.06296197413935035,
        0.0,
        0.18556604211247058,
        -0.40559386534291375,
        0.8950189162307729,
        0.0,
        -45.179688,
        89.767578,
        13.958984,
        1.0
      ]
    },
    {
      "name": "bone_12",
      "matrix": [
        0.0015339994582559149,
        -0.0015339994582559149,
        -0.9999976468428933,
        0.0,
        1.9999996468390934e-06,
        0.9999988234197232,
        -0.0015339997291255846,
        0.0,
        0.9999988234201389,
        3.5315981291765583e-07,
        0.0015340007213807828,
        0.0,
        10.503906,
        45.780273,
        -1.933594,
        1.0
      ]
    },
    {
      "name": "bone_13",
      "matrix": [
        0.48493896982685575,
        0.27792398270743135,
        0.8292119484060195,
        0.0,
        -0.0004879997623263616,
        -0.9480745382532075,
        0.31804784509912837,
        0.0,
        0.8745478589005683,
        -0.15463844959176706,
        -0.45962266306208843,
        0.0,
        10.503906,
        45.780273,
        -1.933594,
        1.0
      ]
    },
    {
      "name": "bone_14",
      "matrix": [
        -0.1447909710370306,
        -0.9878278024018611,
        0.05684898862832739,
        0.0,
        -0.4628189942531766,
        0.01683199979099706,
        -0.8862929889949,
        0.0,
        0.8745479734382989,
        -0.15463801424115667,
        -0.45962259159718877,
        0.0,
        21.292969,
        51.96405,
        16.516602,
        1.0
      ]
    },
    {
      "name": "bone_15",
      "matrix": [
        0.22223903189097,
        -0.7146011025441937,
        0.663291095181284,
        0.0,
        -0.43101704466177293,
        -0.682226070691928,
        -0.5905860611962356,
        0.0,
        0.8745479280685561,
        -0.15463849310695882,
        -0.4596225168120082,
        0.0,
        18.867188,
        35.417908,
        17.46875,
        1.0
      ]
    },
    {
      "name": "bone_16",
      "matrix": [
        0.0015339994582559149,
        -0.0015339994582559149,
        -0.9999976468428933,
        0.0,
        1.9999996468390934e-06,
        0.9999988234197232,
        -0.0015339997291255846,
        0.0,
        0.9999988234201389,
        3.5315981291765583e-07,
        0.0015340007213807828,
        0.0,
        -10.496094,
        45.780273,
        -1.96582,
        1.0
      ]
    },
    {
      "name": "bone_17",
      "matrix": [
        -0.16079608134064788,
        -0.9475764793430542,
        0.27612213967973315,
        0.0,
        0.3153049319690269,
        -0.31441993215997666,
        -0.8953898068084776,
        0.0,
        0.9352686252012202,
        -0.056912499740303525,
        0.3493330303414344,
        0.0,
        -10.496094,
        45.780273,
        -1.96582,
        1.0
      ]
    },
    {
      "name": "bone_18",
      "matrix": [
        0.025262995042264026,
        -0.9737358089092351,
        -0.2262749555946757,
        0.0,
        0.35303592589882604,
        0.22045295372759122,
        -0.9092668091476446,
        0.0,
        0.9352686342351327,
        -0.05691238556449029,
        0.3493330247561891,
        0.0,
        -14.074219,
        24.696716,
        4.177734,
        1.0
      ]
    },
    {
      "name": "bone_19",
      "matrix": [
        -0.18372193258242248,
        -0.9008146694420641,
        0.3934198556328401,
        0.0,
        0.28079688589273305,
        -0.4316508245903059,
        -0.8572226516509304,
        0.0,
        0.9420187446793867,
        -0.047019531904672014,
        0.3322496776403822,
        0.0,
        -13.650391,
        8.386658,
        0.387695,
        1.0
      ]
    }
  ],
  "meshes": [
    {
      "name": "Mario",
      "primitives": [
        {
          "mode": 4,
          "attributes": {
            "POSITION": 0,
            "NORMAL": 1,
            "COLOR_0": 2,
            "TEXCOORD_0": 3
          },
          "skin": 0
        }
      ]
    }
  ],
  "skins": [
    {
      "name": "MarioSkin",
      "joints": [
        2,
        3,
        4,
        5,
        6,
        7,
        8,
        9,
        10,
        11,
        12,
        13,
        14,
        15,
        16,
        17,
        18,
        19,
        20,
        21
      ],
      "inverseBindMatrices": 4
    }
  ],
  "accessors": [
    {
      "bufferView": 0,
      "byteOffset": 0,
      "componentType": 5126,
      "count": 2256,
      "type": "VEC3",
      "min": [
        -69.550781,
        -17.582703,
        -19.867188
      ],
      "max": [
        66.472656,
        134.557007,
        59.380859
      ],
      "name": "POSITION"
    },
    {
      "bufferView": 1,
      "byteOffset": 0,
      "componentType": 5126,
      "count": 2256,
      "type": "VEC3",
      "name": "NORMAL"
    },
    {
      "bufferView": 2,
      "byteOffset": 0,
      "componentType": 5126,
      "count": 2256,
      "type": "VEC3",
      "name": "COLOR_0"
    },
    {
      "bufferView": 3,
      "byteOffset": 0,
      "componentType": 5126,
      "count": 2256,
      "type": "VEC2",
      "name": "TEXCOORD_0"
    },
    {
      "bufferView": 4,
      "byteOffset": 0,
      "componentType": 5126,
      "count": 20,
      "type": "MAT4",
      "name": "inverseBindMatrices"
    }
  ],
  "bufferViews": [
    {
      "buffer": 0,
      "byteOffset": 0,
      "byteLength": 27072,
      "name": "positions"
    },
    {
      "buffer": 0,
      "byteOffset": 27072,
      "byteLength": 27072,
      "name": "normals"
    },
    {
      "buffer": 0,
      "byteOffset": 54144,
      "byteLength": 27072,
      "name": "colors"
    },
    {
      "buffer": 0,
      "byteOffset": 81216,
      "byteLength": 18048,
      "name": "uvs"
    },
    {
      "buffer": 0,
      "byteOffset": 99264,
      "byteLength": 1280,
      "name": "inverseBindMatrices"
    }
  ],
  "buffers": [
    {
      "uri": "data:application/octet-stream;base64,",
      "byteLength": 100544
    }
  ]
}